<?xml version="1.0" encoding="utf-8"?>
<!-- Generator: Adobe Illustrator 16.0.0, SVG Export Plug-In . SVG Version: 6.00 Build 0)  -->
<!DOCTYPE svg PUBLIC "-//W3C//DTD SVG 1.1//EN" "http://www.w3.org/Graphics/SVG/1.1/DTD/svg11.dtd">
<svg version="1.1" id="Layer_1" xmlns="http://www.w3.org/2000/svg" xmlns:xlink="http://www.w3.org/1999/xlink" x="0px" y="0px"
	 width="370.736px" height="216.237px" viewBox="0 0 370.736 216.237" enable-background="new 0 0 370.736 216.237"
	 xml:space="preserve">
<path fill="#FFFFFF" stroke="#000000" stroke-miterlimit="10" d="M77.688,0.489c-19,4-71,1-67,43s-8,42,24,61s42-40,49,25
	s28,89-11,86s-72-38-72-38s151-159,136-86s-38,94,17,72s75-24.752,80-55.376s9-112.624,10-44.624s89-12,63-4s-75,21-64,53
	s95,21.248,92-4.376s-16-36.624-12-37.624s-15.844-21,12.078,22s14.922,45,35.922,47"/>
</svg>
